<?xml version="1.0" encoding="UTF-8"?>
<svg width="150px" height="150px" viewBox="0 0 150 150" version="1.1" xmlns="http://www.w3.org/2000/svg">
    <g id="filmpire-logo">
        <rect x="0" y="0" width="150" height="150" fill="none"/>
        
        <!-- Filmstrip background -->
        <path d="M20,20 L130,20 L130,50 L20,50 L20,20 Z" fill="#2196F3"/>
        <path d="M20,70 L130,70 L130,100 L20,100 L20,70 Z" fill="#2196F3"/>
        <path d="M20,120 L130,120 L130,150 L20,150 L20,120 Z" fill="#2196F3"/>
        
        <!-- Film holes -->
        <circle cx="30" cy="35" r="3" fill="#FFFFFF"/>
        <circle cx="50" cy="35" r="3" fill="#FFFFFF"/>
        <circle cx="70" cy="35" r="3" fill="#FFFFFF"/>
        <circle cx="90" cy="35" r="3" fill="#FFFFFF"/>
        <circle cx="110" cy="35" r="3" fill="#FFFFFF"/>
        
        <circle cx="30" cy="85" r="3" fill="#FFFFFF"/>
        <circle cx="50" cy="85" r="3" fill="#FFFFFF"/>
        <circle cx="70" cy="85" r="3" fill="#FFFFFF"/>
        <circle cx="90" cy="85" r="3" fill="#FFFFFF"/>
        <circle cx="110" cy="85" r="3" fill="#FFFFFF"/>
        
        <circle cx="30" cy="135" r="3" fill="#FFFFFF"/>
        <circle cx="50" cy="135" r="3" fill="#FFFFFF"/>
        <circle cx="70" cy="135" r="3" fill="#FFFFFF"/>
        <circle cx="90" cy="135" r="3" fill="#FFFFFF"/>
        <circle cx="110" cy="135" r="3" fill="#FFFFFF"/>
        
        <!-- Text -->
        <text x="75" y="100" font-family="Arial" font-size="24" fill="#FFFFFF" text-anchor="middle" font-weight="bold">FILMP</text>
        <text x="75" y="125" font-family="Arial" font-size="24" fill="#FFFFFF" text-anchor="middle" font-weight="bold">IRE</text>
    </g>
</svg>
